# xmcd
#
# Track frame offsets:
#	150
#	9989
#	26049
#	37868
#	48647
#	59280
#	69951
#	80994
#	93375
#	104937
#	118296
#	130494
#	141056
#	151036
#	168283
#	182502
#	195768
#	206827
#	221027
#
# Disc length: 3082 seconds
#
# Revision: 2
# Processed by: cddbd v1.5.1PL0 Copyright (c) Steve Scherf et al.
# Submitted via: MusicWizard 7.1.1b
#
DISCID=0e0c0813
DTITLE=Crystal Gayle - Somebody Loves You and The Crystal Gayle Singlesalbum
DYEAR=2003
DGENRE=Country
TTITLE0=Before I'm Fool Enough
TTITLE1=I'll Get Over You
TTITLE2=Sweet Baby On My Mind
TTITLE3=I Want To Lose Me In You
TTITLE4=High Time
TTITLE5=Wrong Road Again
TTITLE6=Somebody Loves You
TTITLE7=What You've Done For Me
TTITLE8=Coming Closer
TTITLE9=Dreaming My Dreams With You
TTITLE10=What I've Been Needin'
TTITLE11=They Come Out At Night
TTITLE12=Ready For The Times To Get Better
TTITLE13=You Never Miss A Real Good Thing
TTITLE14=River Road
TTITLE15=Why Have You Left The One You Left Me For
TTITLE16=All I Wanna Do In Life
TTITLE17=We Should Be Together
TTITLE18=Too Deep For Tears
EXTD=Somebody Loves You (c)1975 EMI/Liberty\nThe Crystal Gayle Singles Album (c)1980 EMI/Liberty\n
EXTD=\n
EXTT0=
EXTT1=
EXTT2=
EXTT3=
EXTT4=
EXTT5=
EXTT6=
EXTT7=
EXTT8=
EXTT9=
EXTT10=
EXTT11=
EXTT12=
EXTT13=
EXTT14=
EXTT15=
EXTT16=
EXTT17=
EXTT18=
PLAYORDER=
